<?xml version="1.0" encoding="UTF-8" standalone="no"?>
<!-- Created with Inkscape (http://www.inkscape.org/) -->

<svg
   xmlns:dc="http://purl.org/dc/elements/1.1/"
   xmlns:cc="http://creativecommons.org/ns#"
   xmlns:rdf="http://www.w3.org/1999/02/22-rdf-syntax-ns#"
   xmlns:svg="http://www.w3.org/2000/svg"
   xmlns="http://www.w3.org/2000/svg"
   xmlns:sodipodi="http://sodipodi.sourceforge.net/DTD/sodipodi-0.dtd"
   xmlns:inkscape="http://www.inkscape.org/namespaces/inkscape"
   width="210mm"
   height="297mm"
   viewBox="0 0 210 297"
   version="1.1"
   id="svg8"
   inkscape:version="0.92.1 r15371"
   sodipodi:docname="ship.svg">
  <defs
     id="defs2">
    <inkscape:path-effect
       effect="skeletal"
       id="path-effect4523"
       is_visible="true"
       pattern="M 0,5 C 0,2.24 2.24,0 5,0 7.76,0 10,2.24 10,5 10,7.76 7.76,10 5,10 2.24,10 0,7.76 0,5 Z"
       copytype="single_stretched"
       prop_scale="0.26458333"
       scale_y_rel="false"
       spacing="0"
       normal_offset="0"
       tang_offset="0"
       prop_units="false"
       vertical_pattern="false"
       fuse_tolerance="0" />
    <inkscape:path-effect
       effect="skeletal"
       id="path-effect4519"
       is_visible="true"
       pattern="M 0,5 C 0,2.24 2.24,0 5,0 7.76,0 10,2.24 10,5 10,7.76 7.76,10 5,10 2.24,10 0,7.76 0,5 Z"
       copytype="single_stretched"
       prop_scale="0.26458333"
       scale_y_rel="false"
       spacing="0"
       normal_offset="0"
       tang_offset="0"
       prop_units="false"
       vertical_pattern="false"
       fuse_tolerance="0" />
    <inkscape:path-effect
       effect="skeletal"
       id="path-effect4515"
       is_visible="true"
       pattern="M 0,5 C 0,2.24 2.24,0 5,0 7.76,0 10,2.24 10,5 10,7.76 7.76,10 5,10 2.24,10 0,7.76 0,5 Z"
       copytype="single_stretched"
       prop_scale="0.26458333"
       scale_y_rel="false"
       spacing="0"
       normal_offset="0"
       tang_offset="0"
       prop_units="false"
       vertical_pattern="false"
       fuse_tolerance="0" />
    <inkscape:path-effect
       effect="skeletal"
       id="path-effect4511"
       is_visible="true"
       pattern="M 0,5 C 0,2.24 2.24,0 5,0 7.76,0 10,2.24 10,5 10,7.76 7.76,10 5,10 2.24,10 0,7.76 0,5 Z"
       copytype="single_stretched"
       prop_scale="0.26458333"
       scale_y_rel="false"
       spacing="0"
       normal_offset="0"
       tang_offset="0"
       prop_units="false"
       vertical_pattern="false"
       fuse_tolerance="0" />
    <inkscape:path-effect
       effect="skeletal"
       id="path-effect4507"
       is_visible="true"
       pattern="M 0,5 C 0,2.24 2.24,0 5,0 7.76,0 10,2.24 10,5 10,7.76 7.76,10 5,10 2.24,10 0,7.76 0,5 Z"
       copytype="single_stretched"
       prop_scale="0.26458333"
       scale_y_rel="false"
       spacing="0"
       normal_offset="0"
       tang_offset="0"
       prop_units="false"
       vertical_pattern="false"
       fuse_tolerance="0" />
    <inkscape:path-effect
       effect="skeletal"
       id="path-effect4503"
       is_visible="true"
       pattern="M 0,5 C 0,2.24 2.24,0 5,0 7.76,0 10,2.24 10,5 10,7.76 7.76,10 5,10 2.24,10 0,7.76 0,5 Z"
       copytype="single_stretched"
       prop_scale="0.26458333"
       scale_y_rel="false"
       spacing="0"
       normal_offset="0"
       tang_offset="0"
       prop_units="false"
       vertical_pattern="false"
       fuse_tolerance="0" />
    <inkscape:path-effect
       effect="skeletal"
       id="path-effect4499"
       is_visible="true"
       pattern="m -0.46772167,3.9710123 c 0,-2.76 2.23999997,-5 4.99999997,-5 2.76,0 5,2.24 5,5 0,2.76 -2.24,5 -5,5 -2.76,0 -4.99999997,-2.24 -4.99999997,-5 z"
       copytype="single_stretched"
       prop_scale="0.26458333"
       scale_y_rel="false"
       spacing="0"
       normal_offset="0"
       tang_offset="0"
       prop_units="false"
       vertical_pattern="false"
       fuse_tolerance="0" />
    <inkscape:path-effect
       effect="skeletal"
       id="path-effect4508"
       is_visible="true"
       pattern="m 1.3096207,3.316202 c 0,-2.76000002 2.24,-5 5,-5 2.76,0 5.0000003,2.23999998 5.0000003,5 0,2.76 -2.2400003,5 -5.0000003,5 -2.76,0 -5,-2.24 -5,-5 z"
       copytype="single_stretched"
       prop_scale="0.26458333"
       scale_y_rel="false"
       spacing="0"
       normal_offset="0"
       tang_offset="0"
       prop_units="false"
       vertical_pattern="false"
       fuse_tolerance="0" />
    <inkscape:path-effect
       effect="skeletal"
       id="path-effect4504"
       is_visible="true"
       pattern="M 0,5 C 0,2.24 2.24,0 5,0 7.76,0 10,2.24 10,5 10,7.76 7.76,10 5,10 2.24,10 0,7.76 0,5 Z"
       copytype="single_stretched"
       prop_scale="0.26458333"
       scale_y_rel="false"
       spacing="0"
       normal_offset="0"
       tang_offset="0"
       prop_units="false"
       vertical_pattern="false"
       fuse_tolerance="0" />
    <inkscape:path-effect
       effect="skeletal"
       id="path-effect4500"
       is_visible="true"
       pattern="M 0,5 C 0,2.24 2.24,0 5,0 7.76,0 10,2.24 10,5 10,7.76 7.76,10 5,10 2.24,10 0,7.76 0,5 Z"
       copytype="single_stretched"
       prop_scale="0.26458333"
       scale_y_rel="false"
       spacing="0"
       normal_offset="0"
       tang_offset="0"
       prop_units="false"
       vertical_pattern="false"
       fuse_tolerance="0" />
    <filter
       inkscape:collect="always"
       style="color-interpolation-filters:sRGB"
       id="filter4624"
       x="-0.5124"
       width="2.0248"
       y="-0.5124"
       height="2.0248">
      <feGaussianBlur
         inkscape:collect="always"
         stdDeviation="2.9458279"
         id="feGaussianBlur4626" />
    </filter>
  </defs>
  <sodipodi:namedview
     id="base"
     pagecolor="#ffffff"
     bordercolor="#666666"
     borderopacity="1.0"
     inkscape:pageopacity="0.0"
     inkscape:pageshadow="2"
     inkscape:zoom="5.6568542"
     inkscape:cx="381.91721"
     inkscape:cy="460.54135"
     inkscape:document-units="mm"
     inkscape:current-layer="layer1"
     showgrid="false"
     inkscape:window-width="1920"
     inkscape:window-height="983"
     inkscape:window-x="0"
     inkscape:window-y="27"
     inkscape:window-maximized="1" />
  <metadata
     id="metadata5">
    <rdf:RDF>
      <cc:Work
         rdf:about="">
        <dc:format>image/svg+xml</dc:format>
        <dc:type
           rdf:resource="http://purl.org/dc/dcmitype/StillImage" />
        <dc:title />
      </cc:Work>
    </rdf:RDF>
  </metadata>
  <g
     inkscape:label="Capa 1"
     inkscape:groupmode="layer"
     id="layer1">
    <g
       style="stroke-width:3.92930126"
       transform="matrix(0.23639639,0,0,0.27398607,88.306687,133.54735)"
       id="g4528">
      <path
         inkscape:connector-curvature="0"
         style="fill:#5c1212;fill-opacity:1;stroke:none;stroke-width:1.03962767px;stroke-linecap:butt;stroke-linejoin:miter;stroke-opacity:1"
         d="m 53.327698,141.48483 c 0.105191,-0.39536 3.173318,0.23001 8.153386,0.77779 5.008499,0.55091 11.81861,0.97945 19.310632,-0.0992 0.766994,-0.11043 1.523768,-0.23411 2.27058,-0.37063 0,0 2e-6,0 2e-6,0 6.83502,-1.23434 12.815754,-3.54937 16.983002,-5.29142 4.21822,-1.76336 6.7557,-2.99396 6.94678,-2.6632 0.15385,0.26632 -2.06646,2.05272 -6.16877,4.28386 -4.063315,2.20994 -10.099315,4.89116 -17.279046,6.26285 0,0 -2e-6,0 -2e-6,0 -0.781867,0.14771 -1.574495,0.27924 -2.377555,0.39392 -7.855072,1.12178 -14.928542,0.37939 -19.979278,-0.66583 -5.037829,-1.04253 -7.941122,-2.32221 -7.859731,-2.62812 z"
         id="path4510" />
      <path
         style="fill:#5c1212;fill-opacity:1;stroke:none;stroke-width:1.03962767px;stroke-linecap:butt;stroke-linejoin:miter;stroke-opacity:1"
         d="m 94.49288,142.03359 c 0.452985,0.21595 -0.149016,1.05282 -0.388341,2.56557 0,0 0,0 0,0 -0.297276,1.05726 -0.395131,2.15758 -0.42832,3.93086 -4.581413,0.11019 -10.688018,0.15529 -18.250841,0.19281 -7.496259,0.0372 -15.633578,0.082 -19.453031,-0.0199 -1.447555,-1.46541 -2.280142,-2.50447 -2.626129,-3.67158 -0.229636,-0.89245 0.17998,-1.41588 0.174335,-1.41302 0.177513,-0.0901 0.486037,0.62103 0.860952,0.93633 0.778377,1.06367 0.831848,0.8136 2.324169,2.24979 4.735143,-0.52639 10.820861,-0.67335 18.479924,-0.38476 6.152108,0.2318 13.464334,0.76716 17.316985,1.05514 -0.432563,-1.29855 -0.33849,-2.49506 0.07671,-3.42682 0,0 0,0 0,0 0.840749,-1.59866 1.814086,-2.06189 1.91359,-2.01446 z"
         id="path4512"
         inkscape:connector-curvature="0" />
      <path
         style="fill:#5c1212;fill-opacity:1;stroke:none;stroke-width:1.03962767px;stroke-linecap:butt;stroke-linejoin:miter;stroke-opacity:1"
         d="m 85.568386,113.69684 c 0.354247,-0.13894 1.296798,1.52983 2.866544,4.19111 1.856348,3.14717 3.513164,5.82836 6.465031,10.25878 1.475829,2.21505 2.891266,4.30049 4.117653,6.15747 0,0 -10e-7,1e-5 -10e-7,1e-5 -0.355898,0.94957 -0.853334,1.51698 -1.314486,1.76001 -0.785996,0.1849 -1.456836,0.13657 -1.962823,0.0521 -4.633909,-0.61593 -7.044846,-2.49766 -7.003037,-2.64355 0.123808,-0.43204 3.055187,0.41583 7.171022,0.47834 0.475934,-0.008 0.898165,0.007 1.128168,-0.11144 0.04306,0.0906 0.06324,0.34669 -0.117334,0.77924 0,0 -10e-7,0 -10e-7,0 -1.344197,-1.712 -2.873298,-3.71771 -4.335887,-5.81605 -2.737652,-3.92764 -4.616142,-7.29298 -5.842217,-10.25499 -1.163452,-2.81071 -1.501289,-4.7221 -1.172632,-4.851 z"
         id="path4514"
         inkscape:connector-curvature="0"
         inkscape:path-effect="#path-effect4508"
         inkscape:original-d="m 85.568386,113.69684 c 3.267241,8.33045 7.873036,14.48343 12.399982,20.7647 -0.295186,0.87088 -2.345306,0.98444 -9.231097,-0.9888"
         sodipodi:nodetypes="ccc" />
      <path
         style="fill:#5c1212;fill-opacity:1;stroke:none;stroke-width:1.03962767px;stroke-linecap:butt;stroke-linejoin:miter;stroke-opacity:1"
         d="m 82.716355,117.32488 c 0.400736,-0.001 0.611335,1.92055 1.232633,5.01452 0.636414,3.16924 1.666074,7.24034 3.68776,11.63584 0.83801,1.82199 1.746065,3.47738 2.685086,4.96135 0,0 -10e-7,0 -10e-7,0 -7.39907,0.93094 -12.067918,-0.76267 -11.843407,-1.47524 0.173118,-0.54947 4.646774,0.73822 10.758855,0.9486 0,0 0,0 10e-7,0 -1.122871,-1.43755 -2.217378,-3.0361 -3.204966,-4.79274 -2.389395,-4.25006 -3.457207,-8.18814 -3.774079,-11.32208 -0.307932,-3.04552 0.120889,-4.96925 0.458118,-4.97025 z"
         id="path4516"
         inkscape:connector-curvature="0"
         inkscape:path-effect="#path-effect4499"
         inkscape:original-d="m 82.716355,117.32488 c 0.02087,7.05703 2.757844,15.24848 7.063203,21.34839 -3.824361,0.19938 -7.6063,-0.0478 -11.301124,-1.21192"
         sodipodi:nodetypes="ccc" />
      <path
         style="fill:#5c1212;fill-opacity:1;stroke:none;stroke-width:1.03962755px;stroke-linecap:butt;stroke-linejoin:miter;stroke-opacity:1"
         d="m 76.346927,139.77871 c -0.327797,-0.0388 -0.414365,-2.24219 -0.302135,-5.82566 0.101183,-3.23091 0.387314,-9.01006 2.001183,-14.41432 0,0 0,-1e-5 0,-1e-5 -1.270034,-1.72129 -3.213733,-2.71939 -5.615897,-3.66854 -1.005045,-0.39712 -2.105192,-0.79275 -3.110236,-1.18987 0,0 -2e-6,0 -2e-6,0 0.896838,7.01676 -0.238327,13.39069 -1.314395,17.55741 -1.108431,4.29204 -2.280907,6.81857 -2.621759,6.72354 -0.421243,-0.11747 0.107885,-2.85279 1.017861,-7.47847 0.847837,-4.30981 2.252176,-11.31259 1.880217,-18.10558 -2e-6,0 -2e-6,0 -2e-6,0 1.225468,0.33349 2.566706,0.69139 3.898432,1.11332 3.147963,0.99735 6.049443,2.29806 8.352711,4.47358 -10e-7,0 -10e-7,0 -10e-7,0 -1.482604,5.04396 -2.24217,11.86783 -2.702691,14.90888 -0.574226,3.7919 -1.120445,5.94867 -1.483286,5.90572 z"
         id="path4518"
         inkscape:connector-curvature="0" />
      <path
         style="fill:#5c1212;fill-opacity:1;stroke:none;stroke-width:1.03962767px;stroke-linecap:butt;stroke-linejoin:miter;stroke-opacity:1"
         d="m 67.780991,117.25882 c -0.276042,0.17628 -1.045703,-0.35141 -2.41895,-0.91746 -2.019961,-0.83259 -2.870655,-0.88959 -6.267044,-1.78913 0.747318,3.16195 0.689521,6.45437 -0.115296,10.29019 -0.884586,4.21598 -2.281662,7.94177 -3.135991,10.96448 0,0 10e-7,0 10e-7,0 1.491652,-0.0456 3.064487,0.17699 3.977077,0.28746 2.436941,0.44454 3.653003,0.28642 3.847,0.54864 0.206444,0.27903 -1.122794,1.25528 -4.171607,1.06353 -1.509953,-0.17969 -3.327927,-0.63496 -5.246053,-0.97621 0,0 -10e-7,0 -10e-7,0 0.621584,-3.32278 1.964463,-7.7448 2.964688,-12.42245 0.915242,-4.28021 1.165765,-7.64127 0.65817,-10.7484 3.709039,0.29119 6.31431,0.90066 8.11318,1.84239 1.669958,0.87424 2.017013,1.71508 1.79483,1.85696 z"
         id="path4520"
         inkscape:connector-curvature="0" />
      <path
         style="fill:#5c1212;fill-opacity:1;stroke:none;stroke-width:1.03962767px;stroke-linecap:butt;stroke-linejoin:miter;stroke-opacity:1"
         d="m 64.752688,107.1001 c 0.430782,0.17547 0.189752,1.32577 0.200397,2.49456 0.0012,0.13076 0.0058,0.25604 0.01409,0.37875 0,0 0,0 0,0 0.02313,1.00717 0.294557,1.95342 -0.163421,2.11056 -0.254647,0.0874 -1.080885,-0.53158 -1.326287,-1.94241 0,0 0,0 0,0 -0.02541,-0.17556 -0.03872,-0.35579 -0.0392,-0.53894 -0.0044,-1.74785 1.005201,-2.62847 1.314406,-2.50252 z"
         id="path4522"
         inkscape:connector-curvature="0" />
      <path
         style="fill:#5c1212;fill-opacity:1;stroke:none;stroke-width:1.03962767px;stroke-linecap:butt;stroke-linejoin:miter;stroke-opacity:1"
         d="m 72.983008,102.65346 c 0.477799,0.11401 0.233674,2.76537 0.489046,5.85733 0.256089,3.10062 0.915563,5.68466 0.449147,5.87334 -0.457035,0.18489 -2.015289,-2.1724 -2.305975,-5.72063 -0.290853,-3.55027 0.87859,-6.12676 1.367782,-6.01004 z"
         id="path4524"
         inkscape:connector-curvature="0" />
      <path
         style="fill:#5c1212;fill-opacity:1;stroke:none;stroke-width:1.03962767px;stroke-linecap:butt;stroke-linejoin:miter;stroke-opacity:1"
         d="m 82.461901,102.41765 c 0.496354,0.13764 -0.03094,3.35449 0.37293,7.33131 0.403865,3.97681 1.262904,7.26776 0.776966,7.43858 -0.41496,0.14587 -2.205607,-2.86634 -2.629892,-7.2551 -0.425399,-4.40027 0.941527,-7.66412 1.479996,-7.51479 z"
         id="path4526"
         inkscape:connector-curvature="0" />
    </g>
    <rect
       style="opacity:0.23;fill:#0077ff;fill-opacity:1;stroke:none;stroke-width:5.29166603;stroke-miterlimit:4;stroke-dasharray:none;filter:url(#filter4624)"
       id="rect4532"
       width="13.797789"
       height="13.797789"
       x="99.90535"
       y="161.40749" />
  </g>
</svg>
